%TF.GenerationSoftware,KiCad,Pcbnew,(6.0.9-0)*%
%TF.CreationDate,2022-12-31T14:30:25+01:00*%
%TF.ProjectId,tomclock,746f6d63-6c6f-4636-9b2e-6b696361645f,rev?*%
%TF.SameCoordinates,Original*%
%TF.FileFunction,Paste,Top*%
%TF.FilePolarity,Positive*%
%FSLAX46Y46*%
G04 Gerber Fmt 4.6, Leading zero omitted, Abs format (unit mm)*
G04 Created by KiCad (PCBNEW (6.0.9-0)) date 2022-12-31 14:30:25*
%MOMM*%
%LPD*%
G01*
G04 APERTURE LIST*
G04 Aperture macros list*
%AMRoundRect*
0 Rectangle with rounded corners*
0 $1 Rounding radius*
0 $2 $3 $4 $5 $6 $7 $8 $9 X,Y pos of 4 corners*
0 Add a 4 corners polygon primitive as box body*
4,1,4,$2,$3,$4,$5,$6,$7,$8,$9,$2,$3,0*
0 Add four circle primitives for the rounded corners*
1,1,$1+$1,$2,$3*
1,1,$1+$1,$4,$5*
1,1,$1+$1,$6,$7*
1,1,$1+$1,$8,$9*
0 Add four rect primitives between the rounded corners*
20,1,$1+$1,$2,$3,$4,$5,0*
20,1,$1+$1,$4,$5,$6,$7,0*
20,1,$1+$1,$6,$7,$8,$9,0*
20,1,$1+$1,$8,$9,$2,$3,0*%
G04 Aperture macros list end*
%ADD10R,1.200000X0.720000*%
%ADD11RoundRect,0.084000X-0.164000X0.140000X-0.164000X-0.140000X0.164000X-0.140000X0.164000X0.140000X0*%
%ADD12RoundRect,0.084000X0.140000X0.164000X-0.140000X0.164000X-0.140000X-0.164000X0.140000X-0.164000X0*%
%ADD13R,1.120000X0.960000*%
%ADD14RoundRect,0.084000X-0.140000X-0.164000X0.140000X-0.164000X0.140000X0.164000X-0.140000X0.164000X0*%
%ADD15RoundRect,0.081000X-0.175000X0.135000X-0.175000X-0.135000X0.175000X-0.135000X0.175000X0.135000X0*%
%ADD16RoundRect,0.120000X0.260000X-0.200000X0.260000X0.200000X-0.260000X0.200000X-0.260000X-0.200000X0*%
%ADD17RoundRect,0.081000X-0.135000X-0.175000X0.135000X-0.175000X0.135000X0.175000X-0.135000X0.175000X0*%
%ADD18RoundRect,0.084000X0.164000X-0.140000X0.164000X0.140000X-0.164000X0.140000X-0.164000X-0.140000X0*%
%ADD19RoundRect,0.002500X-0.587500X-0.237500X0.587500X-0.237500X0.587500X0.237500X-0.587500X0.237500X0*%
%ADD20RoundRect,0.000000X-0.640000X-0.240000X0.640000X-0.240000X0.640000X0.240000X-0.640000X0.240000X0*%
%ADD21RoundRect,0.079500X0.100500X-0.079500X0.100500X0.079500X-0.100500X0.079500X-0.100500X-0.079500X0*%
%ADD22R,0.480000X0.928000*%
%ADD23R,0.240000X0.928000*%
%ADD24RoundRect,0.150000X0.250000X0.430000X-0.250000X0.430000X-0.250000X-0.430000X0.250000X-0.430000X0*%
%ADD25RoundRect,0.120000X0.200000X0.260000X-0.200000X0.260000X-0.200000X-0.260000X0.200000X-0.260000X0*%
%ADD26RoundRect,0.249999X0.395001X0.395001X-0.395001X0.395001X-0.395001X-0.395001X0.395001X-0.395001X0*%
%ADD27RoundRect,0.000000X0.350000X0.080000X-0.350000X0.080000X-0.350000X-0.080000X0.350000X-0.080000X0*%
%ADD28RoundRect,0.030000X0.050000X0.320000X-0.050000X0.320000X-0.050000X-0.320000X0.050000X-0.320000X0*%
%ADD29RoundRect,0.000000X0.240000X-0.820000X0.240000X0.820000X-0.240000X0.820000X-0.240000X-0.820000X0*%
G04 APERTURE END LIST*
D10*
%TO.C,DS92*%
X115300000Y-117600000D03*
X115300000Y-120900000D03*
X120200000Y-120900000D03*
X120200000Y-117600000D03*
%TD*%
%TO.C,DS18*%
X204395595Y-139410000D03*
X204395595Y-142710000D03*
X209295595Y-142710000D03*
X209295595Y-139410000D03*
%TD*%
%TO.C,DS98*%
X123300000Y-105600000D03*
X123300000Y-108900000D03*
X128200000Y-108900000D03*
X128200000Y-105600000D03*
%TD*%
%TO.C,DS117*%
X171300000Y-111600000D03*
X171300000Y-114900000D03*
X176200000Y-114900000D03*
X176200000Y-111600000D03*
%TD*%
%TO.C,DS66*%
X51300000Y-111600000D03*
X51300000Y-114900000D03*
X56200000Y-114900000D03*
X56200000Y-111600000D03*
%TD*%
%TO.C,DS65*%
X67300000Y-105600000D03*
X67300000Y-108900000D03*
X72200000Y-108900000D03*
X72200000Y-105600000D03*
%TD*%
D11*
%TO.C,C6*%
X67750000Y-166270000D03*
X67750000Y-167230000D03*
%TD*%
D10*
%TO.C,DS115*%
X163300000Y-105600000D03*
X163300000Y-108900000D03*
X168200000Y-108900000D03*
X168200000Y-105600000D03*
%TD*%
D12*
%TO.C,C8*%
X69230000Y-165250000D03*
X68270000Y-165250000D03*
%TD*%
D10*
%TO.C,DS43*%
X30765595Y-130310000D03*
X30765595Y-133610000D03*
X35665595Y-133610000D03*
X35665595Y-130310000D03*
%TD*%
D13*
%TO.C,Y1*%
X74100000Y-148400000D03*
X71900000Y-148400000D03*
X71900000Y-150100000D03*
X74100000Y-150100000D03*
%TD*%
D10*
%TO.C,DS112*%
X179300000Y-93600000D03*
X179300000Y-96900000D03*
X184200000Y-96900000D03*
X184200000Y-93600000D03*
%TD*%
D14*
%TO.C,C16*%
X65540000Y-163250000D03*
X66500000Y-163250000D03*
%TD*%
D10*
%TO.C,DS123*%
X171300000Y-129600000D03*
X171300000Y-132900000D03*
X176200000Y-132900000D03*
X176200000Y-129600000D03*
%TD*%
D15*
%TO.C,R2*%
X81750000Y-155740000D03*
X81750000Y-156760000D03*
%TD*%
D10*
%TO.C,DS86*%
X107300000Y-117600000D03*
X107300000Y-120900000D03*
X112200000Y-120900000D03*
X112200000Y-117600000D03*
%TD*%
%TO.C,DS64*%
X43300000Y-105600000D03*
X43300000Y-108900000D03*
X48200000Y-108900000D03*
X48200000Y-105600000D03*
%TD*%
%TO.C,DS23*%
X179015595Y-178480000D03*
X179015595Y-181780000D03*
X183915595Y-181780000D03*
X183915595Y-178480000D03*
%TD*%
%TO.C,DS109*%
X155300000Y-117600000D03*
X155300000Y-120900000D03*
X160200000Y-120900000D03*
X160200000Y-117600000D03*
%TD*%
%TO.C,DS91*%
X115300000Y-105600000D03*
X115300000Y-108900000D03*
X120200000Y-108900000D03*
X120200000Y-105600000D03*
%TD*%
%TO.C,DS93*%
X115300000Y-129600000D03*
X115300000Y-132900000D03*
X120200000Y-132900000D03*
X120200000Y-129600000D03*
%TD*%
%TO.C,DS82*%
X107300000Y-105600000D03*
X107300000Y-108900000D03*
X112200000Y-108900000D03*
X112200000Y-105600000D03*
%TD*%
%TO.C,DS118*%
X179300000Y-111600000D03*
X179300000Y-114900000D03*
X184200000Y-114900000D03*
X184200000Y-111600000D03*
%TD*%
D16*
%TO.C,R4*%
X41250000Y-202075000D03*
X41250000Y-200425000D03*
%TD*%
D10*
%TO.C,DS63*%
X67300000Y-99600000D03*
X67300000Y-102900000D03*
X72200000Y-102900000D03*
X72200000Y-99600000D03*
%TD*%
%TO.C,DS71*%
X67300000Y-123600000D03*
X67300000Y-126900000D03*
X72200000Y-126900000D03*
X72200000Y-123600000D03*
%TD*%
%TO.C,DS125*%
X195300000Y-105600000D03*
X195300000Y-108900000D03*
X200200000Y-108900000D03*
X200200000Y-105600000D03*
%TD*%
%TO.C,DS70*%
X43300000Y-123600000D03*
X43300000Y-126900000D03*
X48200000Y-126900000D03*
X48200000Y-123600000D03*
%TD*%
%TO.C,DS0*%
X118795595Y-21600000D03*
X118795595Y-24900000D03*
X123695595Y-24900000D03*
X123695595Y-21600000D03*
%TD*%
%TO.C,DS16*%
X208305595Y-121010000D03*
X208305595Y-124310000D03*
X213205595Y-124310000D03*
X213205595Y-121010000D03*
%TD*%
%TO.C,DS13*%
X206825595Y-92890000D03*
X206825595Y-96190000D03*
X211725595Y-96190000D03*
X211725595Y-92890000D03*
%TD*%
%TO.C,DS40*%
X40855595Y-156600000D03*
X40855595Y-159900000D03*
X45755595Y-159900000D03*
X45755595Y-156600000D03*
%TD*%
%TO.C,DS107*%
X139300000Y-129600000D03*
X139300000Y-132900000D03*
X144200000Y-132900000D03*
X144200000Y-129600000D03*
%TD*%
%TO.C,DS48*%
X33195595Y-83790000D03*
X33195595Y-87090000D03*
X38095595Y-87090000D03*
X38095595Y-83790000D03*
%TD*%
D14*
%TO.C,C13*%
X68790000Y-150250000D03*
X69750000Y-150250000D03*
%TD*%
D10*
%TO.C,DS20*%
X196735595Y-156600000D03*
X196735595Y-159900000D03*
X201635595Y-159900000D03*
X201635595Y-156600000D03*
%TD*%
D17*
%TO.C,R7*%
X76240000Y-146500000D03*
X77260000Y-146500000D03*
%TD*%
D10*
%TO.C,DS1*%
X128205595Y-22090000D03*
X128205595Y-25390000D03*
X133105595Y-25390000D03*
X133105595Y-22090000D03*
%TD*%
%TO.C,DS19*%
X201015595Y-148210000D03*
X201015595Y-151510000D03*
X205915595Y-151510000D03*
X205915595Y-148210000D03*
%TD*%
%TO.C,DS33*%
X90985595Y-197200000D03*
X90985595Y-200500000D03*
X95885595Y-200500000D03*
X95885595Y-197200000D03*
%TD*%
%TO.C,DS95*%
X139300000Y-93600000D03*
X139300000Y-96900000D03*
X144200000Y-96900000D03*
X144200000Y-93600000D03*
%TD*%
%TO.C,DS119*%
X163300000Y-117600000D03*
X163300000Y-120900000D03*
X168200000Y-120900000D03*
X168200000Y-117600000D03*
%TD*%
%TO.C,DS78*%
X99300000Y-93600000D03*
X99300000Y-96900000D03*
X104200000Y-96900000D03*
X104200000Y-93600000D03*
%TD*%
%TO.C,DS11*%
X201015595Y-74990000D03*
X201015595Y-78290000D03*
X205915595Y-78290000D03*
X205915595Y-74990000D03*
%TD*%
%TO.C,DS80*%
X107300000Y-99600000D03*
X107300000Y-102900000D03*
X112200000Y-102900000D03*
X112200000Y-99600000D03*
%TD*%
D11*
%TO.C,C5*%
X65750000Y-166270000D03*
X65750000Y-167230000D03*
%TD*%
D10*
%TO.C,DS3*%
X146605595Y-26000000D03*
X146605595Y-29300000D03*
X151505595Y-29300000D03*
X151505595Y-26000000D03*
%TD*%
%TO.C,DS47*%
X30765595Y-92890000D03*
X30765595Y-96190000D03*
X35665595Y-96190000D03*
X35665595Y-92890000D03*
%TD*%
%TO.C,DS62*%
X43300000Y-99600000D03*
X43300000Y-102900000D03*
X48200000Y-102900000D03*
X48200000Y-99600000D03*
%TD*%
%TO.C,DS85*%
X83300000Y-117600000D03*
X83300000Y-120900000D03*
X88200000Y-120900000D03*
X88200000Y-117600000D03*
%TD*%
%TO.C,DS6*%
X171695595Y-38790000D03*
X171695595Y-42090000D03*
X176595595Y-42090000D03*
X176595595Y-38790000D03*
%TD*%
%TO.C,DS103*%
X147300000Y-117600000D03*
X147300000Y-120900000D03*
X152200000Y-120900000D03*
X152200000Y-117600000D03*
%TD*%
%TO.C,DS111*%
X171300000Y-93600000D03*
X171300000Y-96900000D03*
X176200000Y-96900000D03*
X176200000Y-93600000D03*
%TD*%
%TO.C,DS39*%
X45985595Y-164500000D03*
X45985595Y-167800000D03*
X50885595Y-167800000D03*
X50885595Y-164500000D03*
%TD*%
D18*
%TO.C,C1*%
X80500000Y-156710000D03*
X80500000Y-155750000D03*
%TD*%
D10*
%TO.C,DS127*%
X195300000Y-129600000D03*
X195300000Y-132900000D03*
X200200000Y-132900000D03*
X200200000Y-129600000D03*
%TD*%
D19*
%TO.C,U2*%
X84062500Y-150050000D03*
X84062500Y-151950000D03*
X85937500Y-151000000D03*
%TD*%
D10*
%TO.C,DS122*%
X187300000Y-123600000D03*
X187300000Y-126900000D03*
X192200000Y-126900000D03*
X192200000Y-123600000D03*
%TD*%
%TO.C,DS50*%
X40855595Y-66600000D03*
X40855595Y-69900000D03*
X45755595Y-69900000D03*
X45755595Y-66600000D03*
%TD*%
%TO.C,DS10*%
X196735595Y-66600000D03*
X196735595Y-69900000D03*
X201635595Y-69900000D03*
X201635595Y-66600000D03*
%TD*%
%TO.C,DS108*%
X155300000Y-105600000D03*
X155300000Y-108900000D03*
X160200000Y-108900000D03*
X160200000Y-105600000D03*
%TD*%
%TO.C,DS83*%
X91300000Y-111600000D03*
X91300000Y-114900000D03*
X96200000Y-114900000D03*
X96200000Y-111600000D03*
%TD*%
%TO.C,DS72*%
X51300000Y-129600000D03*
X51300000Y-132900000D03*
X56200000Y-132900000D03*
X56200000Y-129600000D03*
%TD*%
D14*
%TO.C,C17*%
X96520000Y-166250000D03*
X97480000Y-166250000D03*
%TD*%
D10*
%TO.C,DS126*%
X195300000Y-117600000D03*
X195300000Y-120900000D03*
X200200000Y-120900000D03*
X200200000Y-117600000D03*
%TD*%
%TO.C,DS110*%
X155300000Y-129600000D03*
X155300000Y-132900000D03*
X160200000Y-132900000D03*
X160200000Y-129600000D03*
%TD*%
%TO.C,DS55*%
X73795595Y-33660000D03*
X73795595Y-36960000D03*
X78695595Y-36960000D03*
X78695595Y-33660000D03*
%TD*%
%TO.C,DS106*%
X131300000Y-129600000D03*
X131300000Y-132900000D03*
X136200000Y-132900000D03*
X136200000Y-129600000D03*
%TD*%
%TO.C,DS41*%
X36575595Y-148210000D03*
X36575595Y-151510000D03*
X41475595Y-151510000D03*
X41475595Y-148210000D03*
%TD*%
%TO.C,DS42*%
X33195595Y-139410000D03*
X33195595Y-142710000D03*
X38095595Y-142710000D03*
X38095595Y-139410000D03*
%TD*%
%TO.C,DS4*%
X155405595Y-29380000D03*
X155405595Y-32680000D03*
X160305595Y-32680000D03*
X160305595Y-29380000D03*
%TD*%
D12*
%TO.C,C14*%
X77230000Y-148250000D03*
X76270000Y-148250000D03*
%TD*%
D10*
%TO.C,DS53*%
X58575595Y-44720000D03*
X58575595Y-48020000D03*
X63475595Y-48020000D03*
X63475595Y-44720000D03*
%TD*%
%TO.C,DS44*%
X29285595Y-121010000D03*
X29285595Y-124310000D03*
X34185595Y-124310000D03*
X34185595Y-121010000D03*
%TD*%
%TO.C,DS17*%
X206825595Y-130310000D03*
X206825595Y-133610000D03*
X211725595Y-133610000D03*
X211725595Y-130310000D03*
%TD*%
%TO.C,DS61*%
X59300000Y-93600000D03*
X59300000Y-96900000D03*
X64200000Y-96900000D03*
X64200000Y-93600000D03*
%TD*%
%TO.C,DS57*%
X90985595Y-26000000D03*
X90985595Y-29300000D03*
X95885595Y-29300000D03*
X95885595Y-26000000D03*
%TD*%
D14*
%TO.C,C12*%
X64040000Y-159000000D03*
X65000000Y-159000000D03*
%TD*%
D10*
%TO.C,DS49*%
X36575595Y-74990000D03*
X36575595Y-78290000D03*
X41475595Y-78290000D03*
X41475595Y-74990000D03*
%TD*%
%TO.C,DS76*%
X75300000Y-129600000D03*
X75300000Y-132900000D03*
X80200000Y-132900000D03*
X80200000Y-129600000D03*
%TD*%
%TO.C,DS9*%
X191605595Y-58700000D03*
X191605595Y-62000000D03*
X196505595Y-62000000D03*
X196505595Y-58700000D03*
%TD*%
%TO.C,DS101*%
X139300000Y-111600000D03*
X139300000Y-114900000D03*
X144200000Y-114900000D03*
X144200000Y-111600000D03*
%TD*%
%TO.C,DS5*%
X163795595Y-33660000D03*
X163795595Y-36960000D03*
X168695595Y-36960000D03*
X168695595Y-33660000D03*
%TD*%
D11*
%TO.C,C10*%
X71750000Y-153270000D03*
X71750000Y-154230000D03*
%TD*%
D10*
%TO.C,DS81*%
X83300000Y-105600000D03*
X83300000Y-108900000D03*
X88200000Y-108900000D03*
X88200000Y-105600000D03*
%TD*%
D20*
%TO.C,U1*%
X81900000Y-158595000D03*
X81900000Y-159865000D03*
X81900000Y-161135000D03*
X81900000Y-162405000D03*
X89100000Y-162405000D03*
X89100000Y-161135000D03*
X89100000Y-159865000D03*
X89100000Y-158595000D03*
%TD*%
D21*
%TO.C,R6*%
X70500000Y-167095000D03*
X70500000Y-166405000D03*
%TD*%
D10*
%TO.C,DS104*%
X123300000Y-123600000D03*
X123300000Y-126900000D03*
X128200000Y-126900000D03*
X128200000Y-123600000D03*
%TD*%
%TO.C,DS24*%
X171695595Y-184410000D03*
X171695595Y-187710000D03*
X176595595Y-187710000D03*
X176595595Y-184410000D03*
%TD*%
%TO.C,DS114*%
X187300000Y-99600000D03*
X187300000Y-102900000D03*
X192200000Y-102900000D03*
X192200000Y-99600000D03*
%TD*%
D22*
%TO.C,J2*%
X36300000Y-205365000D03*
X37100000Y-205365000D03*
D23*
X38250000Y-205365000D03*
X39250000Y-205365000D03*
X39750000Y-205365000D03*
X40750000Y-205365000D03*
D22*
X41900000Y-205365000D03*
X42700000Y-205365000D03*
X42700000Y-205365000D03*
X41900000Y-205365000D03*
D23*
X41250000Y-205365000D03*
X40250000Y-205365000D03*
X38750000Y-205365000D03*
X37750000Y-205365000D03*
D22*
X37100000Y-205365000D03*
X36300000Y-205365000D03*
%TD*%
D24*
%TO.C,C2*%
X88200000Y-147500000D03*
X86300000Y-147500000D03*
%TD*%
D10*
%TO.C,DS99*%
X147300000Y-105600000D03*
X147300000Y-108900000D03*
X152200000Y-108900000D03*
X152200000Y-105600000D03*
%TD*%
%TO.C,DS29*%
X128205595Y-201110000D03*
X128205595Y-204410000D03*
X133105595Y-204410000D03*
X133105595Y-201110000D03*
%TD*%
D14*
%TO.C,C15*%
X65540000Y-164250000D03*
X66500000Y-164250000D03*
%TD*%
D10*
%TO.C,DS73*%
X59300000Y-129600000D03*
X59300000Y-132900000D03*
X64200000Y-132900000D03*
X64200000Y-129600000D03*
%TD*%
%TO.C,DS59*%
X109385595Y-22090000D03*
X109385595Y-25390000D03*
X114285595Y-25390000D03*
X114285595Y-22090000D03*
%TD*%
%TO.C,DS97*%
X147300000Y-99600000D03*
X147300000Y-102900000D03*
X152200000Y-102900000D03*
X152200000Y-99600000D03*
%TD*%
%TO.C,DS116*%
X187300000Y-105600000D03*
X187300000Y-108900000D03*
X192200000Y-108900000D03*
X192200000Y-105600000D03*
%TD*%
D25*
%TO.C,R3*%
X38325000Y-195750000D03*
X36675000Y-195750000D03*
%TD*%
D10*
%TO.C,DS96*%
X123300000Y-99600000D03*
X123300000Y-102900000D03*
X128200000Y-102900000D03*
X128200000Y-99600000D03*
%TD*%
%TO.C,DS45*%
X28795595Y-111600000D03*
X28795595Y-114900000D03*
X33695595Y-114900000D03*
X33695595Y-111600000D03*
%TD*%
%TO.C,DS113*%
X163300000Y-99600000D03*
X163300000Y-102900000D03*
X168200000Y-102900000D03*
X168200000Y-99600000D03*
%TD*%
%TO.C,DS35*%
X73795595Y-189540000D03*
X73795595Y-192840000D03*
X78695595Y-192840000D03*
X78695595Y-189540000D03*
%TD*%
%TO.C,DS58*%
X100085595Y-23570000D03*
X100085595Y-26870000D03*
X104985595Y-26870000D03*
X104985595Y-23570000D03*
%TD*%
%TO.C,DS15*%
X208795595Y-111600000D03*
X208795595Y-114900000D03*
X213695595Y-114900000D03*
X213695595Y-111600000D03*
%TD*%
%TO.C,DS52*%
X51915595Y-51380000D03*
X51915595Y-54680000D03*
X56815595Y-54680000D03*
X56815595Y-51380000D03*
%TD*%
%TO.C,DS38*%
X51915595Y-171820000D03*
X51915595Y-175120000D03*
X56815595Y-175120000D03*
X56815595Y-171820000D03*
%TD*%
%TO.C,DS60*%
X51300000Y-93600000D03*
X51300000Y-96900000D03*
X56200000Y-96900000D03*
X56200000Y-93600000D03*
%TD*%
%TO.C,DS32*%
X100085595Y-199630000D03*
X100085595Y-202930000D03*
X104985595Y-202930000D03*
X104985595Y-199630000D03*
%TD*%
%TO.C,DS56*%
X82185595Y-29380000D03*
X82185595Y-32680000D03*
X87085595Y-32680000D03*
X87085595Y-29380000D03*
%TD*%
%TO.C,DS31*%
X109385595Y-201110000D03*
X109385595Y-204410000D03*
X114285595Y-204410000D03*
X114285595Y-201110000D03*
%TD*%
D18*
%TO.C,C7*%
X73500000Y-167480000D03*
X73500000Y-166520000D03*
%TD*%
D10*
%TO.C,DS75*%
X75300000Y-117600000D03*
X75300000Y-120900000D03*
X80200000Y-120900000D03*
X80200000Y-117600000D03*
%TD*%
%TO.C,DS21*%
X191605595Y-164500000D03*
X191605595Y-167800000D03*
X196505595Y-167800000D03*
X196505595Y-164500000D03*
%TD*%
%TO.C,DS12*%
X204395595Y-83790000D03*
X204395595Y-87090000D03*
X209295595Y-87090000D03*
X209295595Y-83790000D03*
%TD*%
D21*
%TO.C,R5*%
X71500000Y-167095000D03*
X71500000Y-166405000D03*
%TD*%
D10*
%TO.C,DS68*%
X43300000Y-117600000D03*
X43300000Y-120900000D03*
X48200000Y-120900000D03*
X48200000Y-117600000D03*
%TD*%
D24*
%TO.C,C3*%
X81950000Y-152250000D03*
X80050000Y-152250000D03*
%TD*%
D10*
%TO.C,DS121*%
X163300000Y-123600000D03*
X163300000Y-126900000D03*
X168200000Y-126900000D03*
X168200000Y-123600000D03*
%TD*%
%TO.C,DS37*%
X58575595Y-178480000D03*
X58575595Y-181780000D03*
X63475595Y-181780000D03*
X63475595Y-178480000D03*
%TD*%
%TO.C,DS100*%
X131300000Y-111600000D03*
X131300000Y-114900000D03*
X136200000Y-114900000D03*
X136200000Y-111600000D03*
%TD*%
%TO.C,DS77*%
X91300000Y-93600000D03*
X91300000Y-96900000D03*
X96200000Y-96900000D03*
X96200000Y-93600000D03*
%TD*%
%TO.C,DS102*%
X123300000Y-117600000D03*
X123300000Y-120900000D03*
X128200000Y-120900000D03*
X128200000Y-117600000D03*
%TD*%
%TO.C,DS7*%
X179015595Y-44720000D03*
X179015595Y-48020000D03*
X183915595Y-48020000D03*
X183915595Y-44720000D03*
%TD*%
%TO.C,DS74*%
X75300000Y-105600000D03*
X75300000Y-108900000D03*
X80200000Y-108900000D03*
X80200000Y-105600000D03*
%TD*%
%TO.C,DS67*%
X59300000Y-111600000D03*
X59300000Y-114900000D03*
X64200000Y-114900000D03*
X64200000Y-111600000D03*
%TD*%
%TO.C,DS22*%
X185675595Y-171820000D03*
X185675595Y-175120000D03*
X190575595Y-175120000D03*
X190575595Y-171820000D03*
%TD*%
%TO.C,DS25*%
X163795595Y-189540000D03*
X163795595Y-192840000D03*
X168695595Y-192840000D03*
X168695595Y-189540000D03*
%TD*%
%TO.C,DS105*%
X147300000Y-123600000D03*
X147300000Y-126900000D03*
X152200000Y-126900000D03*
X152200000Y-123600000D03*
%TD*%
%TO.C,DS87*%
X83300000Y-123600000D03*
X83300000Y-126900000D03*
X88200000Y-126900000D03*
X88200000Y-123600000D03*
%TD*%
%TO.C,DS2*%
X137505595Y-23570000D03*
X137505595Y-26870000D03*
X142405595Y-26870000D03*
X142405595Y-23570000D03*
%TD*%
%TO.C,DS28*%
X137505595Y-199630000D03*
X137505595Y-202930000D03*
X142405595Y-202930000D03*
X142405595Y-199630000D03*
%TD*%
%TO.C,DS89*%
X91300000Y-129600000D03*
X91300000Y-132900000D03*
X96200000Y-132900000D03*
X96200000Y-129600000D03*
%TD*%
%TO.C,DS88*%
X107300000Y-123600000D03*
X107300000Y-126900000D03*
X112200000Y-126900000D03*
X112200000Y-123600000D03*
%TD*%
D11*
%TO.C,C4*%
X66750000Y-166270000D03*
X66750000Y-167230000D03*
%TD*%
D10*
%TO.C,DS27*%
X146605595Y-197200000D03*
X146605595Y-200500000D03*
X151505595Y-200500000D03*
X151505595Y-197200000D03*
%TD*%
%TO.C,DS30*%
X118795595Y-201600000D03*
X118795595Y-204900000D03*
X123695595Y-204900000D03*
X123695595Y-201600000D03*
%TD*%
%TO.C,DS34*%
X82185595Y-193820000D03*
X82185595Y-197120000D03*
X87085595Y-197120000D03*
X87085595Y-193820000D03*
%TD*%
%TO.C,DS79*%
X83300000Y-99600000D03*
X83300000Y-102900000D03*
X88200000Y-102900000D03*
X88200000Y-99600000D03*
%TD*%
%TO.C,DS124*%
X179300000Y-129600000D03*
X179300000Y-132900000D03*
X184200000Y-132900000D03*
X184200000Y-129600000D03*
%TD*%
%TO.C,DS14*%
X208305595Y-102190000D03*
X208305595Y-105490000D03*
X213205595Y-105490000D03*
X213205595Y-102190000D03*
%TD*%
%TO.C,DS120*%
X187300000Y-117600000D03*
X187300000Y-120900000D03*
X192200000Y-120900000D03*
X192200000Y-117600000D03*
%TD*%
%TO.C,DS54*%
X65895595Y-38790000D03*
X65895595Y-42090000D03*
X70795595Y-42090000D03*
X70795595Y-38790000D03*
%TD*%
%TO.C,DS69*%
X67300000Y-117600000D03*
X67300000Y-120900000D03*
X72200000Y-120900000D03*
X72200000Y-117600000D03*
%TD*%
D26*
%TO.C,U3*%
X71200000Y-160800000D03*
X72800000Y-159200000D03*
X71200000Y-159200000D03*
X72800000Y-160800000D03*
D27*
X75437500Y-162600000D03*
X75437500Y-162200000D03*
X75437500Y-161800000D03*
X75437500Y-161400000D03*
X75437500Y-161000000D03*
X75437500Y-160600000D03*
X75437500Y-160200000D03*
X75437500Y-159800000D03*
X75437500Y-159400000D03*
X75437500Y-159000000D03*
X75437500Y-158600000D03*
X75437500Y-158200000D03*
X75437500Y-157800000D03*
X75437500Y-157400000D03*
D28*
X74600000Y-156562500D03*
X74200000Y-156562500D03*
X73800000Y-156562500D03*
X73400000Y-156562500D03*
X73000000Y-156562500D03*
X72600000Y-156562500D03*
X72200000Y-156562500D03*
X71800000Y-156562500D03*
X71400000Y-156562500D03*
X71000000Y-156562500D03*
X70600000Y-156562500D03*
X70200000Y-156562500D03*
X69800000Y-156562500D03*
X69400000Y-156562500D03*
D27*
X68562500Y-157400000D03*
X68562500Y-157800000D03*
X68562500Y-158200000D03*
X68562500Y-158600000D03*
X68562500Y-159000000D03*
X68562500Y-159400000D03*
X68562500Y-159800000D03*
X68562500Y-160200000D03*
X68562500Y-160600000D03*
X68562500Y-161000000D03*
X68562500Y-161400000D03*
X68562500Y-161800000D03*
X68562500Y-162200000D03*
X68562500Y-162600000D03*
D28*
X69400000Y-163437500D03*
X69800000Y-163437500D03*
X70200000Y-163437500D03*
X70600000Y-163437500D03*
X71000000Y-163437500D03*
X71400000Y-163437500D03*
X71800000Y-163437500D03*
X72200000Y-163437500D03*
X72600000Y-163437500D03*
X73000000Y-163437500D03*
X73400000Y-163437500D03*
X73800000Y-163437500D03*
X74200000Y-163437500D03*
X74600000Y-163437500D03*
%TD*%
D29*
%TO.C,U4*%
X96535000Y-162150000D03*
X97805000Y-162150000D03*
X99075000Y-162150000D03*
X100345000Y-162150000D03*
X101615000Y-162150000D03*
X102885000Y-162150000D03*
X104155000Y-162150000D03*
X105425000Y-162150000D03*
X106695000Y-162150000D03*
X107965000Y-162150000D03*
X107965000Y-152850000D03*
X106695000Y-152850000D03*
X105425000Y-152850000D03*
X104155000Y-152850000D03*
X102885000Y-152850000D03*
X101615000Y-152850000D03*
X100345000Y-152850000D03*
X99075000Y-152850000D03*
X97805000Y-152850000D03*
X96535000Y-152850000D03*
%TD*%
D10*
%TO.C,DS84*%
X99300000Y-111600000D03*
X99300000Y-114900000D03*
X104200000Y-114900000D03*
X104200000Y-111600000D03*
%TD*%
D12*
%TO.C,C9*%
X78230000Y-158750000D03*
X77270000Y-158750000D03*
%TD*%
D10*
%TO.C,DS51*%
X45985595Y-58700000D03*
X45985595Y-62000000D03*
X50885595Y-62000000D03*
X50885595Y-58700000D03*
%TD*%
%TO.C,DS8*%
X185675595Y-51380000D03*
X185675595Y-54680000D03*
X190575595Y-54680000D03*
X190575595Y-51380000D03*
%TD*%
%TO.C,DS26*%
X155405595Y-193820000D03*
X155405595Y-197120000D03*
X160305595Y-197120000D03*
X160305595Y-193820000D03*
%TD*%
%TO.C,DS90*%
X99300000Y-129600000D03*
X99300000Y-132900000D03*
X104200000Y-132900000D03*
X104200000Y-129600000D03*
%TD*%
D17*
%TO.C,R1*%
X58980000Y-153750000D03*
X60000000Y-153750000D03*
%TD*%
D10*
%TO.C,DS46*%
X29285595Y-102190000D03*
X29285595Y-105490000D03*
X34185595Y-105490000D03*
X34185595Y-102190000D03*
%TD*%
D18*
%TO.C,C11*%
X72500000Y-167500000D03*
X72500000Y-166540000D03*
%TD*%
D10*
%TO.C,DS36*%
X65895595Y-184410000D03*
X65895595Y-187710000D03*
X70795595Y-187710000D03*
X70795595Y-184410000D03*
%TD*%
%TO.C,DS94*%
X131300000Y-93600000D03*
X131300000Y-96900000D03*
X136200000Y-96900000D03*
X136200000Y-93600000D03*
%TD*%
M02*
