M48
; DRILL file {KiCad (6.0.9-0)} date 2022 December 31, Saturday 14:30:33
; FORMAT={-:-/ absolute / inch / decimal}
; #@! TF.CreationDate,2022-12-31T14:30:33+01:00
; #@! TF.GenerationSoftware,Kicad,Pcbnew,(6.0.9-0)
; #@! TF.FileFunction,Plated,1,4,PTH
FMAT,2
INCH
; #@! TA.AperFunction,Plated,PTH,ViaDrill
T1C0.0079
; #@! TA.AperFunction,Plated,PTH,ComponentDrill
T2C0.0236
; #@! TA.AperFunction,Plated,PTH,ComponentDrill
T3C0.0394
%
G90
G05
T1
X1.063Y-4.3602
X1.0827Y-3.9862
X1.0827Y-4.7146
X1.1417Y-5.0886
X1.1614Y-3.6516
X1.2598Y-3.2283
X1.2598Y-5.4823
X1.3681Y-2.9035
X1.3681Y-5.8071
X1.378Y-8.002
X1.3878Y-4.5768
X1.3878Y-7.6969
X1.4075Y-4.1831
X1.4075Y-8.002
X1.4173Y-4.9508
X1.4764Y-3.8091
X1.4764Y-5.3051
X1.5059Y-3.4843
X1.5256Y-8.0315
X1.5551Y-6.1516
X1.565Y-8.0512
X1.5748Y-5.6201
X1.5846Y-2.5394
X1.624Y-4.626
X1.624Y-4.8622
X1.6339Y-3.9173
X1.6339Y-4.1535
X1.6437Y-7.8248
X1.7028Y-3.1201
X1.7126Y-8.002
X1.7224Y-5.9744
X1.7421Y-6.4567
X1.7421Y-8.0118
X1.7913Y-2.2343
X1.8701Y-6.2894
X1.8799Y-2.7854
X1.9488Y-5.0984
X1.9587Y-4.3799
X1.9587Y-4.7539
X1.9685Y-3.6713
X1.9685Y-4.0551
X1.9685Y-4.2815
X1.9685Y-4.9902
X1.9685Y-6.7618
X2.0177Y-2.5
X2.0472Y-1.9488
X2.0669Y-6.6043
X2.185Y-5.2953
X2.1949Y-4.6161
X2.2047Y-3.8681
X2.2539Y-7.0177
X2.2736Y-1.6831
X2.2736Y-3.6811
X2.2736Y-4.3996
X2.2933Y-2.2146
X2.3031Y-6.8799
X2.3425Y-6.6831
X2.3622Y-6.0827
X2.372Y-6.6831
X2.3819Y-5.0492
X2.4016Y-6.6831
X2.4016Y-6.8701
X2.4016Y-7.0866
X2.4311Y-6.6831
X2.4606Y-6.6831
X2.4803Y-4.5965
X2.4902Y-6.6831
X2.5098Y-1.9488
X2.5098Y-3.8238
X2.5098Y-5.2953
X2.5197Y-6.2992
X2.5394Y-4.1437
X2.5394Y-6.1289
X2.5394Y-6.1516
X2.5394Y-6.1751
X2.5394Y-6.1978
X2.5394Y-6.2205
X2.5394Y-7.2933
X2.5492Y-6.4272
X2.5492Y-6.4665
X2.5492Y-6.6043
X2.5591Y-7.1358
X2.5689Y-3.9075
X2.5689Y-4.8425
X2.5787Y-1.4469
X2.5787Y-4.6161
X2.605Y-6.3024
X2.6476Y-6.0925
X2.6477Y-6.2992
X2.6575Y-6.1289
X2.6575Y-6.1516
X2.6575Y-6.1811
X2.6575Y-6.2106
X2.6575Y-6.2401
X2.6575Y-6.5059
X2.7067Y-3.6909
X2.7067Y-5.8465
X2.7474Y-6.4744
X2.7756Y-4.5177
X2.7756Y-6.0236
X2.7953Y-1.7224
X2.7953Y-6.2598
X2.7953Y-6.3386
X2.8051Y-4.8031
X2.8051Y-6.0925
X2.8346Y-4.5571
X2.8346Y-7.3819
X2.8445Y-4.7146
X2.8445Y-6.5059
X2.8543Y-1.2303
X2.8543Y-4.0059
X2.8543Y-4.2323
X2.8543Y-4.9508
X2.8543Y-5.9646
X2.8543Y-6.1319
X2.8642Y-4.8327
X2.874Y-6.2598
X2.874Y-6.3287
X2.8827Y-6.1943
X2.8937Y-7.4016
X2.9134Y-4.813
X2.9232Y-6.2106
X2.9232Y-6.3976
X2.9331Y-6.5945
X2.9429Y-6.5551
X2.9626Y-4.0846
X2.9626Y-4.3406
X2.9626Y-4.5571
X2.9724Y-5.0492
X2.9724Y-6.4173
X2.9882Y-5.9094
X3.0028Y-6.3868
X3.0118Y-6.25
X3.0217Y-6.3707
X3.0413Y-6.1417
X3.0413Y-6.3583
X3.061Y-6.3451
X3.0807Y-6.3287
X3.0906Y-5.8169
X3.1004Y-6.3091
X3.1004Y-7.6476
X3.1102Y-6.25
X3.1201Y-6.2959
X3.1281Y-6.5659
X3.1398Y-1.5256
X3.1398Y-6.1909
X3.1398Y-6.2795
X3.1484Y-6.5557
X3.1594Y-4.5472
X3.1687Y-6.5456
X3.1693Y-4.7244
X3.1693Y-5.187
X3.1791Y-4.2421
X3.189Y-6.5354
X3.1988Y-1.0827
X3.2126Y-5.9094
X3.2185Y-4.1339
X3.2185Y-6.4665
X3.2185Y-6.5354
X3.2283Y-4.8425
X3.2283Y-7.5591
X3.2382Y-4.5866
X3.2677Y-3.8583
X3.2776Y-4.3504
X3.2972Y-6.5354
X3.3465Y-6.5453
X3.4072Y-6.5436
X3.4252Y-6.5846
X3.435Y-5.9154
X3.4449Y-7.815
X3.4843Y-1.3484
X3.4978Y-4.0157
X3.5039Y-3.6713
X3.5039Y-4.9508
X3.5138Y-4.252
X3.5138Y-4.3898
X3.5138Y-4.7244
X3.5728Y-0.9252
X3.5728Y-7.6969
X3.6024Y-5.0492
X3.6417Y-6.5748
X3.6713Y-5.128
X3.7008Y-4.3504
X3.7992Y-1.2402
X3.7992Y-5.9154
X3.7992Y-6.5846
X3.8091Y-3.7795
X3.8091Y-4.4882
X3.8091Y-5.1969
X3.8287Y-7.9134
X3.8386Y-6.5846
X3.8484Y-5.9547
X3.8976Y-4.3504
X3.9173Y-3.6122
X3.9173Y-5.0394
X3.9272Y-6.5846
X3.9272Y-6.6437
X3.937Y-0.8465
X3.937Y-7.7953
X3.9567Y-6.5846
X3.9567Y-6.624
X3.9961Y-6.5453
X4.065Y-4.6063
X4.0748Y-4.4882
X4.0748Y-4.872
X4.0748Y-5.1969
X4.0846Y-3.7795
X4.124Y-5.9252
X4.124Y-5.9646
X4.1437Y-1.122
X4.1437Y-4.1437
X4.1535Y-3.937
X4.1535Y-5.9055
X4.1535Y-5.9646
X4.1535Y-8.0413
X4.1634Y-4.626
X4.1732Y-3.7598
X4.1732Y-4.8524
X4.2028Y-5.8858
X4.2028Y-5.9646
X4.2323Y-5.1378
X4.252Y-5.8661
X4.252Y-5.9646
X4.252Y-6.4567
X4.2913Y-7.8543
X4.3012Y-0.7776
X4.4291Y-4.2323
X4.4291Y-4.7146
X4.439Y-4.0059
X4.439Y-4.9508
X4.5079Y-1.0728
X4.5276Y-4.0846
X4.5374Y-4.5472
X4.5374Y-5.0197
X4.5472Y-8.1004
X4.5965Y-4.3602
X4.6654Y-7.8642
X4.6752Y-0.7677
X4.6949Y-6.3287
X4.7343Y-4.7146
X4.7441Y-5.187
X4.7539Y-4.252
X4.7736Y-4.8622
X4.8228Y-3.9567
X4.8228Y-4.1929
X4.8425Y-4.5669
X4.8425Y-6.8307
X4.8917Y-5.2756
X4.9114Y-8.1299
X4.9311Y-0.9843
X4.9508Y-6.811
X5.0197Y-7.8543
X5.0295Y-0.7972
X5.0591Y-4.2421
X5.0591Y-4.9508
X5.0689Y-4.0059
X5.0689Y-4.7146
X5.0787Y-6.7913
X5.128Y-3.7205
X5.1575Y-4.3406
X5.1575Y-5.0197
X5.2264Y-6.772
X5.2559Y-5.1969
X5.2657Y-3.7697
X5.2756Y-1.0728
X5.2854Y-8.1102
X5.3346Y-6.6634
X5.374Y-3.7894
X5.374Y-4.4783
X5.374Y-5.187
X5.374Y-7.7854
X5.4035Y-0.8563
X5.4429Y-6.4567
X5.4528Y-3.6417
X5.4528Y-4.3406
X5.4626Y-5.0394
X5.5709Y-5.935
X5.6102Y-4.9606
X5.6201Y-1.1122
X5.6299Y-6.4075
X5.6496Y-3.7894
X5.6496Y-5.1969
X5.6594Y-4.498
X5.6594Y-8.0512
X5.7087Y-7.7264
X5.7185Y-4.8819
X5.7382Y-4.6654
X5.748Y-3.9469
X5.748Y-4.1831
X5.7677Y-3.6909
X5.7874Y-0.9547
X5.9055Y-4.3898
X5.9055Y-4.4783
X5.9449Y-4.7244
X5.9449Y-5.1969
X5.9646Y-4.2421
X5.9744Y-4.0157
X5.9744Y-4.9508
X5.9941Y-1.2106
X6.0138Y-7.9429
X6.0236Y-5.1181
X6.063Y-7.5984
X6.0827Y-4.6752
X6.0925Y-4.2028
X6.1024Y-1.1024
X6.1909Y-4.2618
X6.3189Y-1.3484
X6.3189Y-4.252
X6.3189Y-4.7244
X6.3189Y-5.1969
X6.3681Y-7.815
X6.3976Y-3.9665
X6.3976Y-7.3917
X6.4075Y-4.2028
X6.4075Y-4.6752
X6.4075Y-4.9114
X6.4469Y-1.2598
X6.6043Y-4.0157
X6.6043Y-4.9508
X6.6142Y-4.252
X6.6142Y-4.7244
X6.6535Y-1.5157
X6.6929Y-7.1949
X6.7028Y-5.1476
X6.7126Y-7.6575
X6.7224Y-3.7303
X6.7224Y-4.4488
X6.7421Y-4.0256
X6.752Y-1.4567
X6.8209Y-5.1673
X6.9193Y-3.7795
X6.9193Y-4.4783
X6.9193Y-4.6161
X6.9291Y-5.187
X6.939Y-5.315
X6.998Y-1.7913
X6.998Y-7.4606
X7.0079Y-6.9587
X7.0177Y-1.6535
X7.0276Y-5.1476
X7.0374Y-3.7205
X7.0472Y-4.439
X7.2047Y-4.1929
X7.2343Y-3.7795
X7.2441Y-5.315
X7.2441Y-6.7126
X7.2638Y-2.0571
X7.2933Y-7.2343
X7.313Y-1.8898
X7.313Y-4.4882
X7.3425Y-4.2028
X7.3524Y-3.9567
X7.3524Y-4.6752
X7.3524Y-4.9114
X7.4114Y-4.3996
X7.4705Y-6.4272
X7.4902Y-2.3524
X7.5295Y-4.0059
X7.5394Y-4.7244
X7.5492Y-4.2421
X7.5492Y-4.9508
X7.5787Y-2.1555
X7.5886Y-6.9488
X7.6772Y-4.0945
X7.687Y-2.6083
X7.687Y-5.0295
X7.6969Y-4.5472
X7.7165Y-6.1122
X7.7559Y-4.3799
X7.7953Y-6.6831
X7.8051Y-2.4409
X7.8445Y-2.9232
X7.8642Y-5.8071
X7.8937Y-4.252
X7.8937Y-5.1969
X7.9035Y-4.7244
X7.9626Y-3.2874
X7.9921Y-5.4724
X8.002Y-6.3386
X8.0118Y-2.7657
X8.0807Y-3.6417
X8.0807Y-5.0886
X8.1398Y-4.0059
X8.1496Y-4.7539
X8.1594Y-4.3701
X8.1693Y-6.0138
X8.189Y-3.1102
X8.3071Y-5.6201
X8.3268Y-3.435
X8.3858Y-5.315
X8.3957Y-3.8091
X8.4547Y-4.9016
X8.4646Y-4.1732
X8.4744Y-4.5374
T3
X2.3327Y-5.8455
X2.3327Y-5.9455
X2.4902Y-5.8465
X2.4902Y-5.9465
X4.737Y-6.1121
X4.737Y-6.2121
X4.837Y-6.1121
X4.837Y-6.2121
X4.937Y-6.1121
X4.937Y-6.2121
X5.037Y-6.1121
X5.037Y-6.2121
X5.137Y-6.1121
X5.137Y-6.2121
X5.237Y-6.1121
X5.237Y-6.2121
X5.337Y-6.1121
X5.337Y-6.2121
X5.437Y-6.1121
X5.437Y-6.2121
X5.537Y-6.1121
X5.537Y-6.2121
X5.637Y-6.1121
X5.637Y-6.2121
T2
G00X1.385Y-8.1297
M15
G01X1.385Y-8.0864
M16
G05
G00X1.385Y-8.288
M15
G01X1.385Y-8.2565
M16
G05
G00X1.7252Y-8.1297
M15
G01X1.7252Y-8.0864
M16
G05
G00X1.7252Y-8.288
M15
G01X1.7252Y-8.2565
M16
G05
T0
M30
